HIERARCHY
ROOT root
{
	OFFSET 0.000000 0.000000 0.000000
	CHANNELS 6 Xposition Yposition Zposition Zrotation Yrotation Xrotation
	JOINT lhip
	{
		OFFSET 0.058581 -0.082280 -0.017664
		CHANNELS 3 Zrotation Yrotation Xrotation
		JOINT lknee
		{
			OFFSET 0.043451 -0.386469 0.008037
			CHANNELS 3 Zrotation Yrotation Xrotation
			JOINT lankle
			{
				OFFSET -0.014790 -0.426874 -0.037428
				CHANNELS 3 Zrotation Yrotation Xrotation
				JOINT ltoe
				{
					OFFSET 0.041054 -0.060286 0.122042
					CHANNELS 3 Zrotation Yrotation Xrotation
					End Site
					{
						OFFSET 0.000000 0.000000 0.000000
					}
				}
			}
		}
	}
	JOINT rhip
	{
		OFFSET -0.060310 -0.090513 -0.013543
		CHANNELS 3 Zrotation Yrotation Xrotation
		JOINT rknee
		{
			OFFSET -0.043257 -0.383688 -0.004843
			CHANNELS 3 Zrotation Yrotation Xrotation
			JOINT rankle
			{
				OFFSET 0.019056 -0.420046 -0.034562
				CHANNELS 3 Zrotation Yrotation Xrotation
				JOINT rtoe
				{
					OFFSET -0.034840 -0.062106 0.130323
					CHANNELS 3 Zrotation Yrotation Xrotation
					End Site
					{
						OFFSET 0.000000 0.000000 0.000000
					}
				}
			}
		}
	}
	JOINT lowerback
	{
		OFFSET 0.004439 0.124404 -0.038385
		CHANNELS 3 Zrotation Yrotation Xrotation
		JOINT upperback
		{
			OFFSET 0.004488 0.137956 0.026820
			CHANNELS 3 Zrotation Yrotation Xrotation
			JOINT chest
			{
				OFFSET -0.002265 0.056032 0.002855
				CHANNELS 3 Zrotation Yrotation Xrotation
				JOINT lowerneck
				{
					OFFSET -0.013390 0.211636 -0.033468
					CHANNELS 3 Zrotation Yrotation Xrotation
					JOINT upperneck
					{
						OFFSET 0.010113 0.088937 0.050410
						CHANNELS 3 Zrotation Yrotation Xrotation
						End Site
						{
							OFFSET 0.000000 0.000000 0.000000
						}
					}
				}
				JOINT lclavicle
				{
					OFFSET 0.071702 0.114000 -0.018898
					CHANNELS 3 Zrotation Yrotation Xrotation
					JOINT lshoulder
					{
						OFFSET 0.122921 0.045205 -0.019046
						CHANNELS 3 Zrotation Yrotation Xrotation
						JOINT lelbow
						{
							OFFSET 0.255332 -0.015649 -0.022946
							CHANNELS 3 Zrotation Yrotation Xrotation
							JOINT lwrist
							{
								OFFSET 0.265709 0.012698 -0.007375
								CHANNELS 3 Zrotation Yrotation Xrotation
								End Site
								{
									OFFSET 0.000000 0.000000 0.000000
								}
							}
						}
					}
				}
				JOINT rclavicle
				{
					OFFSET -0.082954 0.112472 -0.023707
					CHANNELS 3 Zrotation Yrotation Xrotation
					JOINT rshoulder
					{
						OFFSET -0.113228 0.046853 -0.008472
						CHANNELS 3 Zrotation Yrotation Xrotation
						JOINT relbow
						{
							OFFSET -0.260127 -0.014369 -0.031269
							CHANNELS 3 Zrotation Yrotation Xrotation
							JOINT rwrist
							{
								OFFSET -0.269108 0.006794 -0.006027
								CHANNELS 3 Zrotation Yrotation Xrotation
								End Site
								{
									OFFSET 0.000000 0.000000 0.000000
								}
							}
						}
					}
				}
			}
		}
	}
}
MOTION
Frames: 7
Frame Time: 0.033333
0.959750 0.219248 0.952371 -72.991465 9.479496 76.859142 11.607422 -2.959180 20.452629 -7.692854 -32.558099 23.992896 3.640322 12.208368 -38.334077 0.000000 -0.000000 0.000000 -10.731991 -5.608550 -17.617564 2.508398 -5.681124 13.049554 8.995658 -11.621820 -4.838746 0.000000 -0.000000 0.000000 -8.910395 -0.609467 5.780989 4.760005 -4.305097 7.608990 2.076505 -4.406331 7.134998 11.623498 -8.485589 16.324503 3.604171 -17.006166 17.042943 -17.847711 11.105489 7.183443 -51.687082 -9.803110 7.508138 3.522685 -32.566415 9.465013 2.362027 -3.811527 -12.892701 23.369825 -12.274811 1.341651 63.763498 -7.281472 9.108662 -13.970631 24.103557 -1.317341 7.303487 -0.265822 -7.636556 
0.939478 0.227547 0.947355 -72.081202 9.451388 76.833749 13.223666 -2.831017 21.390950 -8.125133 -33.197302 24.293422 3.171676 11.813745 -38.917184 0.000000 -0.000000 0.000000 -11.274573 -6.296927 -17.399934 2.718435 -5.653803 13.158944 9.686430 -11.183649 -3.384529 0.000000 -0.000000 0.000000 -9.575749 -0.766780 5.137895 4.720682 -4.482836 8.108837 2.018578 -4.481065 7.269164 11.893978 -9.402917 16.709216 3.658921 -17.785362 17.015558 -17.806840 11.477490 6.764960 -50.152452 -10.085485 7.353563 2.445036 -33.482256 10.269791 2.926888 -3.610782 -11.792901 23.441770 -13.081574 0.977968 63.661583 -8.190205 9.146155 -13.296925 24.701753 -0.803841 7.986087 -0.735875 -7.573231 
0.919443 0.236352 0.942571 -71.317811 9.398826 76.797068 14.457712 -3.270669 22.308616 -8.556559 -33.612866 24.954740 2.501088 11.739072 -39.436441 0.000000 -0.000000 0.000000 -11.647731 -6.553569 -16.885133 3.016848 -5.638630 12.921945 10.530612 -11.003049 -1.811505 0.000000 -0.000000 0.000000 -9.900201 -0.723657 4.992250 4.613743 -4.472453 8.457441 1.959679 -4.517895 7.190815 11.818365 -9.619827 17.445355 4.225423 -17.950216 16.795174 -17.491124 11.322861 6.995716 -49.283688 -10.230001 7.214771 2.204911 -34.925893 10.405907 3.075932 -3.389001 -12.311881 23.220600 -13.269536 1.171233 63.727721 -8.935822 8.943518 -12.694290 25.026125 -0.365526 7.723585 -1.059692 -7.760222 
0.899037 0.245675 0.937180 -70.307992 9.103972 77.165720 15.604775 -3.490150 22.729208 -8.893164 -34.216554 25.597804 1.672816 11.212290 -39.700042 0.000000 -0.000000 0.000000 -12.176393 -6.746175 -16.740077 3.224461 -6.154460 13.040678 11.180411 -11.042555 -1.653844 0.000000 -0.000000 0.000000 -10.163223 -0.833213 4.915978 4.428162 -4.528969 8.747685 1.925279 -4.616001 7.011971 11.776613 -9.539691 17.555692 4.488609 -17.841627 16.934397 -17.244586 11.352107 7.249306 -48.724329 -10.638654 6.945940 2.015958 -35.770581 10.273923 3.286634 -3.809262 -12.302950 22.866633 -13.386471 1.520817 63.540196 -9.369419 8.786056 -11.789108 25.315197 0.606939 8.155803 -0.398839 -7.583690 
0.878112 0.256139 0.931721 -69.517833 8.432485 77.767405 16.562012 -3.742071 23.036685 -9.396225 -34.805919 25.960730 0.911262 10.552600 -39.645367 0.000000 -0.000000 0.000000 -12.631116 -7.156877 -17.271448 3.422142 -5.958465 14.112646 12.001619 -10.549929 -0.915000 0.000000 -0.000000 0.000000 -10.554770 -0.709779 4.860312 4.374070 -4.537779 9.148534 1.928259 -4.699090 7.083190 12.035387 -9.750483 17.413369 4.777181 -18.245697 16.619218 -17.249759 11.240177 7.020214 -48.236348 -10.841975 7.140271 1.870194 -36.839717 10.009441 4.318377 -3.835310 -12.686060 22.645258 -13.482354 1.414429 63.167297 -9.858067 9.009783 -11.194552 26.034348 1.250224 8.296360 -1.037166 -7.736610 
0.858002 0.267654 0.925305 -69.456314 7.459692 78.974600 16.943924 -3.860833 22.830408 -9.450995 -34.699682 26.040334 0.479382 10.045695 -39.210441 0.000000 -0.000000 0.000000 -12.541762 -7.931578 -19.233794 3.770684 -5.437942 16.288234 13.205559 -9.253600 0.123102 0.000000 -0.000000 0.000000 -10.623945 -0.879125 4.579342 4.153347 -4.371833 9.549934 1.776103 -4.641721 7.141428 11.847795 -9.252554 17.446588 4.766695 -17.568667 16.145545 -17.288836 11.333167 6.627318 -48.191723 -10.802317 7.476188 1.999681 -37.785000 9.403868 4.992566 -4.103188 -12.825482 22.332363 -13.480190 1.437112 62.633593 -9.605663 9.131290 -10.675436 26.378864 1.723810 8.559221 -0.588729 -6.897414 
0.836975 0.281377 0.918660 -69.693349 6.346089 80.395119 17.153207 -4.047825 22.513335 -9.659836 -34.612468 26.351477 0.016972 9.951062 -38.421348 0.000000 -0.000000 0.000000 -12.183408 -7.706477 -21.414127 4.350090 -4.601791 18.777770 12.926180 -7.627840 3.575118 0.000000 -0.000000 0.000000 -10.473992 -0.931432 4.748803 4.041043 -4.085389 9.536779 1.551019 -4.553722 6.933857 11.502962 -9.267484 17.375992 4.973298 -17.513131 15.621317 -17.510660 11.158124 6.408369 -48.244142 -10.610943 7.648927 1.943915 -38.206951 9.133498 4.594992 -3.807343 -12.744729 22.123952 -13.435916 1.648182 62.356253 -9.615555 8.853988 -11.156161 26.487137 1.131265 8.458750 -0.702458 -6.812172 
